# xmcd CD database file
#
# Track frame offsets:
#	150
#	19547
#	34706
#	49181
#	81860
#	124565
#	143437
#	157705
#	184463
#	200595
#	216740
#	244919
#
# Disc length: 3499 seconds
#
# Revision: 0
# Processed by: cddbd v1.5.2PL0 Copyright (c) Steve Scherf et al.
# Submitted via: CDex 1.70beta2
#
DISCID=a20da90c
DTITLE=The Johnny V Trio - Mustard And Relics
DYEAR=2006
DGENRE=Blues
TTITLE0=I'm Crying
TTITLE1=Lost At Love
TTITLE2=Let The Door Hit You
TTITLE3=Wrapped Around Your Finger
TTITLE4=Missing The Flu
TTITLE5=One Night Stand
TTITLE6=Takin' That First Step
TTITLE7=A Ain't Gonna Dust My Broom Again
TTITLE8=That's All That You Need To Do
TTITLE9=What's Up With You
TTITLE10=I've Got To Get Back To My Squeeze
TTITLE11=I Ain't Lyin'
EXTD=YEAR: 2006
EXTT0=
EXTT1=
EXTT2=
EXTT3=
EXTT4=
EXTT5=
EXTT6=
EXTT7=
EXTT8=
EXTT9=
EXTT10=
EXTT11=
PLAYORDER=
